<?xml version="1.0" standalone="no"?>
<!DOCTYPE svg PUBLIC "-//W3C//DTD SVG 20010904//EN" "http://www.w3.org/TR/2001/REC-SVG-20010904/DTD/svg10.dtd">
<!-- Created using Krita: https://krita.org -->
<svg xmlns="http://www.w3.org/2000/svg" 
    xmlns:xlink="http://www.w3.org/1999/xlink"
    xmlns:krita="http://krita.org/namespaces/svg/krita"
    xmlns:sodipodi="http://sodipodi.sourceforge.net/DTD/sodipodi-0.dtd"
    width="529.2pt"
    height="528.48pt"
    viewBox="0 0 529.2 528.48">
<defs/>
<circle id="shape0" transform="matrix(0.999999953866097 0 0 0.999999953866097 15.0980703694569 14.4000310573436)" r="249.84" cx="249.84" cy="249.84" fill="none" stroke="#dadada" stroke-width="28.8" stroke-linecap="square" stroke-linejoin="bevel"/><path id="shape1" transform="matrix(0.999999953866097 0 0 0.999999953866097 64.7890325440238 34.8341417897652)" fill="none" stroke="#dadada" stroke-width="28.8" stroke-linecap="square" stroke-linejoin="miter" stroke-miterlimit="2" d="M0 365.482L127.188 0"/><path id="shape2" transform="matrix(0.999999953866097 0 0 0.999999953866097 193.438772801802 36.2960706563308)" fill="none" stroke="#dadada" stroke-width="28.8" stroke-linecap="square" stroke-linejoin="miter" stroke-miterlimit="2" d="M0 0L64.3249 473.665"/><path id="shape01" transform="matrix(-0.999999906782227 0 0 0.999999906782227 467.357651904003 34.3487480978422)" fill="none" stroke="#dadada" stroke-width="28.8" stroke-linecap="square" stroke-linejoin="miter" stroke-miterlimit="2" d="M0 365.482L127.188 0"/><path id="shape011" transform="matrix(-0.999999948185138 0 0 0.999999948185138 336.807238827236 33.4716341793772)" fill="none" stroke="#dadada" stroke-width="28.8" stroke-linecap="square" stroke-linejoin="miter" stroke-miterlimit="2" d="M0 0L64.3249 473.665"/><path id="shape3" transform="matrix(0.999999953866097 0 0 0.999999953866097 115.956542873822 304.56001767113)" fill="none" stroke="#dadada" stroke-width="28.8" stroke-linecap="square" stroke-linejoin="miter" stroke-miterlimit="2" d="M0 0L93.5635 0"/>
</svg>
